<mxfile host="app.diagrams.net" modified="2024-02-27T08:43:48.652Z" agent="Mozilla/5.0 (Windows NT 10.0; Win64; x64) AppleWebKit/537.36 (KHTML, like Gecko) Chrome/120.0.0.0 Safari/537.36" version="21.7.5" etag="eEcUGaw32A8zlf-j6jUB" type="github">
  <diagram name="第 1 页" id="nREvMdjBgM9rCSUrFJfu">
    <mxGraphModel>
      <root>
        <mxCell id="0" />
        <mxCell id="1" parent="0" />
      </root>
    </mxGraphModel>
  </diagram>
</mxfile>
